HIERARCHY
ROOT Hips
{
  OFFSET 5.80788e-005 67.184 3.4734
  CHANNELS 6 Xposition Yposition Zposition Zrotation Xrotation Yrotation
  JOINT Chest
  {
    OFFSET 0 8.7983 -4.7612
    CHANNELS 6 Xposition Yposition Zposition Zrotation Xrotation Yrotation
    JOINT Chest2
    {
      OFFSET 0 8.0291 0.4195
      CHANNELS 6 Xposition Yposition Zposition Zrotation Xrotation Yrotation
      JOINT Chest3
      {
        OFFSET 0 9.9351 -2.2114
        CHANNELS 6 Xposition Yposition Zposition Zrotation Xrotation Yrotation
        JOINT Neck
        {
          OFFSET 0 22.3885 -0.4656
          CHANNELS 6 Xposition Yposition Zposition Zrotation Xrotation Yrotation
          JOINT Head
          {
            OFFSET -0.0001 12.643 3.4389
            CHANNELS 6 Xposition Yposition Zposition Zrotation Xrotation Yrotation
            End Site
            {
              OFFSET 0.0001 17.6655 0.5274
            }
          }
        }
        JOINT LeftCollar
        {
          OFFSET 2.2603 21.606 7.4023
          CHANNELS 6 Xposition Yposition Zposition Zrotation Xrotation Yrotation
          JOINT LeftShoulder
          {
            OFFSET 13.5163 -1.1332 -5.0146
            CHANNELS 6 Xposition Yposition Zposition Zrotation Xrotation Yrotation
            JOINT LeftElbow
            {
              OFFSET -0.0995 -28.05 -0.2431
              CHANNELS 6 Xposition Yposition Zposition Zrotation Xrotation Yrotation
              JOINT LeftWrist
              {
                OFFSET 0.0679 -23.3996 -0.1402
                CHANNELS 6 Xposition Yposition Zposition Zrotation Xrotation Yrotation
                JOINT LeftFinger1
                {
                  OFFSET 0.7932 -9.069 2.5189
                  CHANNELS 6 Xposition Yposition Zposition Zrotation Xrotation Yrotation
                  JOINT LeftFinger11
                  {
                    OFFSET -0.8272 -3.3923 0.5977
                    CHANNELS 6 Xposition Yposition Zposition Zrotation Xrotation Yrotation
                    JOINT LeftFinger12
                    {
                      OFFSET -0.5649 -2.3158 0.4082
                      CHANNELS 6 Xposition Yposition Zposition Zrotation Xrotation Yrotation
                      End Site
                      {
                        OFFSET -0.4919 -1.6479 0.2673
                      }
                    }
                  }
                }
                JOINT LeftFinger2
                {
                  OFFSET 0.9159 -9.2044 0.2193
                  CHANNELS 6 Xposition Yposition Zposition Zrotation Xrotation Yrotation
                  JOINT LeftFinger21
                  {
                    OFFSET 0.0117 -4.1944 -0.0248
                    CHANNELS 6 Xposition Yposition Zposition Zrotation Xrotation Yrotation
                    JOINT LeftFinger22
                    {
                      OFFSET 0.0071 -2.3249 -0.0142
                      CHANNELS 6 Xposition Yposition Zposition Zrotation Xrotation Yrotation
                      End Site
                      {
                        OFFSET -0.1475 -2.0882 0.0028
                      }
                    }
                  }
                }
                JOINT LeftFinger3
                {
                  OFFSET 0.6113 -8.7231 -2.0637
                  CHANNELS 6 Xposition Yposition Zposition Zrotation Xrotation Yrotation
                  JOINT LeftFinger31
                  {
                    OFFSET -0.1927 -3.8059 -0.2383
                    CHANNELS 6 Xposition Yposition Zposition Zrotation Xrotation Yrotation
                    JOINT LeftFinger32
                    {
                      OFFSET -0.1091 -2.1688 -0.1362
                      CHANNELS 6 Xposition Yposition Zposition Zrotation Xrotation Yrotation
                      End Site
                      {
                        OFFSET -0.2358 -1.9176 -0.0906
                      }
                    }
                  }
                }
                JOINT LeftFinger4
                {
                  OFFSET -0.6151 -8.0947 -3.5641
                  CHANNELS 6 Xposition Yposition Zposition Zrotation Xrotation Yrotation
                  JOINT LeftFinger41
                  {
                    OFFSET -0.4882 -2.341 -0.6462
                    CHANNELS 6 Xposition Yposition Zposition Zrotation Xrotation Yrotation
                    JOINT LeftFinger42
                    {
                      OFFSET -0.3575 -1.7167 -0.4742
                      CHANNELS 6 Xposition Yposition Zposition Zrotation Xrotation Yrotation
                      End Site
                      {
                        OFFSET -0.4187 -1.5237 -0.3496
                      }
                    }
                  }
                }
                JOINT LeftFinger0
                {
                  OFFSET -1.42 -1.8761 1.4223
                  CHANNELS 6 Xposition Yposition Zposition Zrotation Xrotation Yrotation
                  JOINT LeftFinger01
                  {
                    OFFSET -1.1471 -3.4929 2.6334
                    CHANNELS 6 Xposition Yposition Zposition Zrotation Xrotation Yrotation
                    JOINT LeftFinger02
                    {
                      OFFSET -0.823 -2.3 1.6571
                      CHANNELS 6 Xposition Yposition Zposition Zrotation Xrotation Yrotation
                      End Site
                      {
                        OFFSET -0.5822 -1.6914 1.1582
                      }
                    }
                  }
                }
              }
            }
          }
        }
        JOINT RightCollar
        {
          OFFSET -2.2603 21.606 7.4023
          CHANNELS 6 Xposition Yposition Zposition Zrotation Xrotation Yrotation
          JOINT RightShoulder
          {
            OFFSET -13.5187 -1.1334 -5.0155
            CHANNELS 6 Xposition Yposition Zposition Zrotation Xrotation Yrotation
            JOINT RightElbow
            {
              OFFSET 0.0994 -28.0499 -0.2431
              CHANNELS 6 Xposition Yposition Zposition Zrotation Xrotation Yrotation
              JOINT RightWrist
              {
                OFFSET -0.0679 -23.3996 -0.1402
                CHANNELS 6 Xposition Yposition Zposition Zrotation Xrotation Yrotation
                JOINT RightFinger1
                {
                  OFFSET -0.7932 -9.0691 2.5189
                  CHANNELS 6 Xposition Yposition Zposition Zrotation Xrotation Yrotation
                  JOINT RightFinger11
                  {
                    OFFSET 0.8272 -3.3923 0.5977
                    CHANNELS 6 Xposition Yposition Zposition Zrotation Xrotation Yrotation
                    JOINT RightFinger12
                    {
                      OFFSET 0.565 -2.3158 0.4082
                      CHANNELS 6 Xposition Yposition Zposition Zrotation Xrotation Yrotation
                      End Site
                      {
                        OFFSET 0.4919 -1.6479 0.2673
                      }
                    }
                  }
                }
                JOINT RightFinger2
                {
                  OFFSET -0.916 -9.2044 0.2193
                  CHANNELS 6 Xposition Yposition Zposition Zrotation Xrotation Yrotation
                  JOINT RightFinger21
                  {
                    OFFSET -0.0117 -4.1944 -0.0248
                    CHANNELS 6 Xposition Yposition Zposition Zrotation Xrotation Yrotation
                    JOINT RightFinger22
                    {
                      OFFSET -0.0071 -2.3249 -0.0142
                      CHANNELS 6 Xposition Yposition Zposition Zrotation Xrotation Yrotation
                      End Site
                      {
                        OFFSET 0.1475 -2.0882 0.0028
                      }
                    }
                  }
                }
                JOINT RightFinger3
                {
                  OFFSET -0.6113 -8.7231 -2.0637
                  CHANNELS 6 Xposition Yposition Zposition Zrotation Xrotation Yrotation
                  JOINT RightFinger31
                  {
                    OFFSET 0.1927 -3.8059 -0.2383
                    CHANNELS 6 Xposition Yposition Zposition Zrotation Xrotation Yrotation
                    JOINT RightFinger32
                    {
                      OFFSET 0.1091 -2.1688 -0.1362
                      CHANNELS 6 Xposition Yposition Zposition Zrotation Xrotation Yrotation
                      End Site
                      {
                        OFFSET 0.2358 -1.9176 -0.0906
                      }
                    }
                  }
                }
                JOINT RightFinger4
                {
                  OFFSET 0.6151 -8.0947 -3.564
                  CHANNELS 6 Xposition Yposition Zposition Zrotation Xrotation Yrotation
                  JOINT RightFinger41
                  {
                    OFFSET 0.4882 -2.341 -0.6462
                    CHANNELS 6 Xposition Yposition Zposition Zrotation Xrotation Yrotation
                    JOINT RightFinger42
                    {
                      OFFSET 0.3574 -1.7166 -0.4742
                      CHANNELS 6 Xposition Yposition Zposition Zrotation Xrotation Yrotation
                      End Site
                      {
                        OFFSET 0.4187 -1.5237 -0.3496
                      }
                    }
                  }
                }
                JOINT RightFinger0
                {
                  OFFSET 1.4199 -1.8761 1.4221
                  CHANNELS 6 Xposition Yposition Zposition Zrotation Xrotation Yrotation
                  JOINT RightFinger01
                  {
                    OFFSET 1.1472 -3.4929 2.6336
                    CHANNELS 6 Xposition Yposition Zposition Zrotation Xrotation Yrotation
                    JOINT RightFinger02
                    {
                      OFFSET 0.8229 -2.3 1.6571
                      CHANNELS 6 Xposition Yposition Zposition Zrotation Xrotation Yrotation
                      End Site
                      {
                        OFFSET 0.5822 -1.6914 1.1582
                      }
                    }
                  }
                }
              }
            }
          }
        }
      }
    }
  }
  JOINT RightHip
  {
    OFFSET -9.412 3.9771 -0.7758
    CHANNELS 6 Xposition Yposition Zposition Zrotation Xrotation Yrotation
    JOINT RightKnee
    {
      OFFSET -0.7531 -40.938 0
      CHANNELS 6 Xposition Yposition Zposition Zrotation Xrotation Yrotation
      JOINT RightAnkle
      {
        OFFSET 0 -40.1986 0
        CHANNELS 6 Xposition Yposition Zposition Zrotation Xrotation Yrotation
        JOINT RightToe
        {
          OFFSET 0 -4.4182 9.239
          CHANNELS 6 Xposition Yposition Zposition Zrotation Xrotation Yrotation
          End Site
          {
            OFFSET 0 0 6.1981
          }
        }
      }
    }
  }
  JOINT LeftHip
  {
    OFFSET 9.4119 3.9773 -0.7758
    CHANNELS 6 Xposition Yposition Zposition Zrotation Xrotation Yrotation
    JOINT LeftKnee
    {
      OFFSET 0.7532 -40.9383 0
      CHANNELS 6 Xposition Yposition Zposition Zrotation Xrotation Yrotation
      JOINT LeftAnkle
      {
        OFFSET 0 -40.1986 0
        CHANNELS 6 Xposition Yposition Zposition Zrotation Xrotation Yrotation
        JOINT LeftToe
        {
          OFFSET 0 -4.4182 9.239
          CHANNELS 6 Xposition Yposition Zposition Zrotation Xrotation Yrotation
          End Site
          {
            OFFSET 0 0 6.1981
          }
        }
      }
    }
  }
}
MOTION
Frames:	4
Frame Time:	0.0333333
39.8423 36.0069 21.2416 -179.996 51.0054 -1.83184e-007 0 8.7983 -4.7612 -0.17273 -1.95773 0.134979 7.10543e-015 8.0291 0.4195 -0.341141 -3.91582 0.264281 0 9.9351 -2.2114 -0.34114 -3.91581 0.26428 7.10543e-015 22.3885 -0.4656 4.49139e-006 15.9935 -2.93233e-006 -0.0001 12.643 3.4389 -9.5223e-008 21.341 1.34282e-007 2.2603 21.606 7.4023 6.16073 1.44716 5.38296 13.5163 -1.1332 -5.0146 99.2969 29.1358 -53.0597 -0.0995 -28.05 -0.2431 -39.3991 -32.402 -75.9568 0.0679 -23.3996 -0.1402 1.7491 8.04733 1.64867 0.7932 -9.069 2.5189 1.17827e-005 -1.8306e-005 -6.19091e-006 -0.8272 -3.3923 0.5977 -2.29241e-006 1.03109e-005 -1.86526e-006 -0.5649 -2.3158 0.4082 -2.29242e-006 -1.21102e-006 -1.86526e-006 0.9159 -9.2044 0.2193 1.17827e-005 -1.8306e-005 -6.19091e-006 0.0117 -4.1944 -0.0248 -0.012823 0.00234002 8.78711e-005 0.0071 -2.3249 -0.0142 -6.36111e-015 1.59028e-014 -1.27222e-014 0.6113 -8.7231 -2.0637 1.17827e-005 -1.8306e-005 -6.19091e-006 -0.1927 -3.8059 -0.2383 -0.0160619 0.00301292 0.000860393 -0.1091 -2.1688 -0.1362 1.00519e-005 7.98182e-007 -1.52409e-006 -0.6151 -8.0947 -3.5641 1.17827e-005 -1.8306e-005 -6.19091e-006 -0.4882 -2.341 -0.6462 -0.0125988 0.00313476 0.00283594 -0.3575 -1.7167 -0.4742 6.36111e-015 9.54166e-015 -6.36111e-015 -1.42 -1.8761 1.4223 1.17827e-005 -1.8306e-005 -6.19091e-006 -1.1471 -3.4929 2.6334 -2.29241e-006 1.03109e-005 -1.86526e-006 -0.823 -2.3 1.6571 -2.29242e-006 -1.21102e-006 -1.86526e-006 -2.2603 21.606 7.4023 -6.95443 1.87512 -10.842 -13.5187 -1.1334 -5.0155 -99.9386 26.366 52.9836 0.0994 -28.0499 -0.2431 39.0802 -34.1267 75.9477 -0.0679 -23.3996 -0.1402 -1.71582 8.06939 -1.55159 -0.7932 -9.0691 2.5189 0 1.59028e-014 -0 0.8272 -3.3923 0.5977 6.36111e-015 9.54166e-015 -0 0.565 -2.3158 0.4082 1.41245e-030 1.27222e-014 -6.36111e-015 -0.916 -9.2044 0.2193 0 1.59028e-014 -0 -0.0117 -4.1944 -0.0248 0.0129812 0.00232896 -8.74175e-005 -0.0071 -2.3249 -0.0142 3.18055e-015 9.54166e-015 9.54166e-015 -0.6113 -8.7231 -2.0637 0 1.59028e-014 -0 0.1927 -3.8059 -0.2383 0.0163449 0.00303777 -0.000873539 0.1091 -2.1688 -0.1362 5.22068e-006 8.9605e-007 -3.41166e-006 0.6151 -8.0947 -3.564 0 1.59028e-014 -0 0.4882 -2.341 -0.6462 0.014641 0.00369884 -0.00327616 0.3574 -1.7166 -0.4742 2.19942e-006 5.56464e-006 1.9158e-006 1.4199 -1.8761 1.4221 0 1.59028e-014 -0 1.1472 -3.4929 2.6336 6.36111e-015 9.54166e-015 -0 0.8229 -2.3 1.6571 1.41245e-030 1.27222e-014 -6.36111e-015 -9.412 3.9771 -0.7758 -45.9581 32.1354 -29.0633 -0.7531 -40.938 0 -71.8977 39.0421 72.2858 1.42109e-014 -40.1986 0 13.19 12.709 16.6307 -1.42109e-014 -4.4182 9.239 -4.77083e-015 -2.21975e-007 -0 9.4119 3.9773 -0.7758 44.8159 32.3525 28.4758 0.7532 -40.9383 1.77636e-015 72.4656 39.3316 -72.6878 0 -40.1986 -1.77636e-015 -14.788 12.2688 -15.4389 0 -4.4182 9.239 -3.18055e-015 -1.58049e-008 6.36111e-015 
39.8421 36.0071 21.2414 -179.996 51.0054 -3.31254e-010 -7.10543e-015 8.7983 -4.7612 -0.172494 -1.91253 0.135395 0 8.0291 0.4195 -0.340747 -3.82545 0.265245 0 9.9351 -2.2114 -0.340746 -3.82545 0.265245 0 22.3885 -0.4656 -1.37809e-005 15.9933 9.09887e-006 -0.0001 12.643 3.4389 -1.47152e-007 20.4759 -8.27127e-008 2.2603 21.606 7.4023 6.16072 1.44701 5.38299 13.5163 -1.1332 -5.0146 99.2948 29.1163 -53.0573 -0.0995 -28.05 -0.2431 -39.3991 -32.402 -75.9568 0.0679 -23.3996 -0.1402 1.74911 8.04734 1.64869 0.7932 -9.069 2.5189 -3.18055e-015 2.54444e-014 -6.36111e-015 -0.8272 -3.3923 0.5977 2.64834e-030 9.54166e-015 -1.59028e-014 -0.5649 -2.3158 0.4082 7.06225e-031 6.36111e-015 -6.36111e-015 0.9159 -9.2044 0.2193 -3.18055e-015 2.54444e-014 -6.36111e-015 0.0117 -4.1944 -0.0248 -0.0128314 0.00232115 8.41169e-005 0.0071 -2.3249 -0.0142 -6.36111e-015 3.18055e-015 3.18055e-015 0.6113 -8.7231 -2.0637 -3.18055e-015 2.54444e-014 -6.36111e-015 -0.1927 -3.8059 -0.2383 -0.0160772 0.00300528 0.000860598 -0.1091 -2.1688 -0.1362 0 0 -0 -0.6151 -8.0947 -3.5641 -3.18055e-015 2.54444e-014 -6.36111e-015 -0.4882 -2.341 -0.6462 -0.0126328 0.00312805 0.00284273 -0.3575 -1.7167 -0.4742 6.36111e-015 -1.27222e-014 3.18055e-015 -1.42 -1.8761 1.4223 -3.18055e-015 2.54444e-014 -6.36111e-015 -1.1471 -3.4929 2.6334 2.64834e-030 9.54166e-015 -1.59028e-014 -0.823 -2.3 1.6571 7.06225e-031 6.36111e-015 -6.36111e-015 -2.2603 21.606 7.4023 -6.95445 1.87497 -10.842 -13.5187 -1.1334 -5.0155 -99.9385 26.366 52.9835 0.0994 -28.0499 -0.2431 39.0802 -34.1266 75.9477 -0.0679 -23.3996 -0.1402 -1.71583 8.06937 -1.55159 -0.7932 -9.0691 2.5189 1.90833e-014 -3.18055e-015 -6.36111e-015 0.8272 -3.3923 0.5977 9.54166e-015 -1.27222e-014 3.18055e-015 0.565 -2.3158 0.4082 9.54166e-015 -3.18055e-015 3.18055e-015 -0.916 -9.2044 0.2193 1.90833e-014 -3.18055e-015 -6.36111e-015 -0.0117 -4.1944 -0.0248 0.0129541 0.00231857 -9.2076e-005 -0.0071 -2.3249 -0.0142 3.18055e-015 -6.36111e-015 3.18055e-015 -0.6113 -8.7231 -2.0637 1.90833e-014 -3.18055e-015 -6.36111e-015 0.1927 -3.8059 -0.2383 0.0163526 0.00303281 -0.000873518 0.1091 -2.1688 -0.1362 3.18055e-015 6.36111e-015 -6.36111e-015 0.6151 -8.0947 -3.564 1.90833e-014 -3.18055e-015 -6.36111e-015 0.4882 -2.341 -0.6462 0.0146044 0.00368528 -0.00326842 0.3574 -1.7166 -0.4742 3.53113e-031 -6.36111e-015 3.18055e-015 1.4199 -1.8761 1.4221 1.90833e-014 -3.18055e-015 -6.36111e-015 1.1472 -3.4929 2.6336 9.54166e-015 -1.27222e-014 3.18055e-015 0.8229 -2.3 1.6571 9.54166e-015 -3.18055e-015 3.18055e-015 -9.412 3.9771 -0.7758 -45.4796 32.2874 -28.8215 -0.7531 -40.938 0 -71.9004 39.0425 72.2959 7.10543e-015 -40.1986 0 13.757 12.6281 16.075 0 -4.4182 9.239 3.66597e-007 1.62906e-007 1.54068e-006 9.4119 3.9773 -0.7758 44.4769 32.4637 28.2786 0.7532 -40.9383 3.55271e-015 72.4667 39.3318 -72.6943 0 -40.1986 0 -15.1896 12.1959 -15.0439 0 -4.4182 9.239 3.72989e-007 -1.56696e-007 1.54195e-006 
39.8419 36.0072 21.2413 -179.996 51.0054 7.12197e-009 -7.10543e-015 8.7983 -4.7612 -0.172261 -1.86741 0.135811 0 8.0291 0.4195 -0.340361 -3.7352 0.266214 -7.10543e-015 9.9351 -2.2114 -0.340361 -3.73519 0.266213 1.42109e-014 22.3885 -0.4656 -9.62077e-006 15.9934 6.27086e-006 -0.0001 12.643 3.4389 1.29207e-007 19.611 1.12013e-008 2.2603 21.606 7.4023 6.16072 1.44704 5.38298 13.5163 -1.1332 -5.0146 99.2926 29.0968 -53.0548 -0.0995 -28.05 -0.2431 -39.3991 -32.402 -75.9568 0.0679 -23.3996 -0.1402 1.74911 8.04737 1.64869 0.7932 -9.069 2.5189 1.31693e-006 3.3495e-006 3.10302e-006 -0.8272 -3.3923 0.5977 -3.18055e-015 3.18055e-015 -0 -0.5649 -2.3158 0.4082 3.18055e-015 6.36111e-015 3.18055e-015 0.9159 -9.2044 0.2193 1.31693e-006 3.3495e-006 3.10302e-006 0.0117 -4.1944 -0.0248 -0.0128156 0.00231792 8.04339e-005 0.0071 -2.3249 -0.0142 -7.00339e-006 7.2635e-006 6.15068e-006 0.6113 -8.7231 -2.0637 1.31693e-006 3.3495e-006 3.10302e-006 -0.1927 -3.8059 -0.2383 -0.0160733 0.00299836 0.000852745 -0.1091 -2.1688 -0.1362 6.36111e-015 -1.90833e-014 -1.27222e-014 -0.6151 -8.0947 -3.5641 1.31693e-006 3.3495e-006 3.10302e-006 -0.4882 -2.341 -0.6462 -0.0125724 0.00309866 0.00281855 -0.3575 -1.7167 -0.4742 -6.36111e-015 3.18055e-015 9.54166e-015 -1.42 -1.8761 1.4223 1.31693e-006 3.3495e-006 3.10302e-006 -1.1471 -3.4929 2.6334 -3.18055e-015 3.18055e-015 -0 -0.823 -2.3 1.6571 3.18055e-015 6.36111e-015 3.18055e-015 -2.2603 21.606 7.4023 -6.95444 1.875 -10.842 -13.5187 -1.1334 -5.0155 -99.9386 26.3661 52.9835 0.0994 -28.0499 -0.2431 39.0802 -34.1267 75.9478 -0.0679 -23.3996 -0.1402 -1.71584 8.06938 -1.55158 -0.7932 -9.0691 2.5189 6.36111e-015 3.18055e-015 3.18055e-015 0.8272 -3.3923 0.5977 6.36111e-015 -6.36111e-015 1.27222e-014 0.565 -2.3158 0.4082 3.18055e-015 0 3.18055e-015 -0.916 -9.2044 0.2193 6.36111e-015 3.18055e-015 3.18055e-015 -0.0117 -4.1944 -0.0248 0.0129338 0.00231955 -8.87273e-005 -0.0071 -2.3249 -0.0142 6.36111e-015 1.59028e-014 6.36111e-015 -0.6113 -8.7231 -2.0637 6.36111e-015 3.18055e-015 3.18055e-015 0.1927 -3.8059 -0.2383 0.0163481 0.00303602 -0.00087439 0.1091 -2.1688 -0.1362 3.18055e-015 3.18055e-015 9.54166e-015 0.6151 -8.0947 -3.564 6.36111e-015 3.18055e-015 3.18055e-015 0.4882 -2.341 -0.6462 0.0145949 0.00367588 -0.00326722 0.3574 -1.7166 -0.4742 6.36111e-015 0 -0 1.4199 -1.8761 1.4221 6.36111e-015 3.18055e-015 3.18055e-015 1.1472 -3.4929 2.6336 6.36111e-015 -6.36111e-015 1.27222e-014 0.8229 -2.3 1.6571 3.18055e-015 0 3.18055e-015 -9.412 3.9771 -0.7758 -45.0012 32.4411 -28.5807 -0.7531 -40.938 0 -71.9029 39.0428 72.3058 0 -40.1986 0 14.3229 12.5418 15.5204 0 -4.4182 9.239 -4.52177e-006 -1.33423e-007 1.79873e-007 9.4119 3.9773 -0.7758 44.1378 32.5758 28.082 0.7532 -40.9383 -3.55271e-015 72.4679 39.3319 -72.7009 0 -40.1986 -1.77636e-015 -15.5907 12.1203 -14.6495 0 -4.4182 9.239 1.96512e-006 8.10615e-007 1.40317e-006 
39.8417 36.0074 21.2411 -179.996 51.0054 -4.85287e-008 -7.10543e-015 8.7983 -4.7612 -0.172028 -1.8223 0.136228 0 8.0291 0.4195 -0.339977 -3.64498 0.267181 0 9.9351 -2.2114 -0.339976 -3.64497 0.26718 0 22.3885 -0.4656 -2.46842e-006 15.9934 1.91736e-006 -0.0001 12.643 3.4389 1.09627e-007 18.7464 -5.9899e-008 2.2603 21.606 7.4023 6.16072 1.44711 5.38297 13.5163 -1.1332 -5.0146 99.2904 29.0773 -53.0524 -0.0995 -28.05 -0.2431 -39.3991 -32.4019 -75.9568 0.0679 -23.3996 -0.1402 1.74911 8.04732 1.6487 0.7932 -9.069 2.5189 3.18055e-015 -3.18055e-015 -6.36111e-015 -0.8272 -3.3923 0.5977 7.34445e-006 -1.68004e-006 -1.8195e-006 -0.5649 -2.3158 0.4082 -3.18055e-015 0 -6.36111e-015 0.9159 -9.2044 0.2193 3.18055e-015 -3.18055e-015 -6.36111e-015 0.0117 -4.1944 -0.0248 -0.0128042 0.00232321 9.12583e-005 0.0071 -2.3249 -0.0142 4.56704e-006 -4.9796e-007 -1.01718e-005 0.6113 -8.7231 -2.0637 3.18055e-015 -3.18055e-015 -6.36111e-015 -0.1927 -3.8059 -0.2383 -0.0160608 0.00298677 0.000854211 -0.1091 -2.1688 -0.1362 3.18055e-015 3.18055e-015 -1.27222e-014 -0.6151 -8.0947 -3.5641 3.18055e-015 -3.18055e-015 -6.36111e-015 -0.4882 -2.341 -0.6462 -0.0125964 0.00312453 0.00282372 -0.3575 -1.7167 -0.4742 2.13162e-006 -1.21883e-005 -2.60958e-007 -1.42 -1.8761 1.4223 3.18055e-015 -3.18055e-015 -6.36111e-015 -1.1471 -3.4929 2.6334 7.34445e-006 -1.68004e-006 -1.8195e-006 -0.823 -2.3 1.6571 -3.18055e-015 0 -6.36111e-015 -2.2603 21.606 7.4023 -6.95444 1.87507 -10.842 -13.5187 -1.1334 -5.0155 -99.9386 26.366 52.9836 0.0994 -28.0499 -0.2431 39.0802 -34.1267 75.9477 -0.0679 -23.3996 -0.1402 -1.71582 8.0694 -1.55161 -0.7932 -9.0691 2.5189 -0 -3.18055e-015 -0 0.8272 -3.3923 0.5977 -3.53113e-031 -3.18055e-015 -6.36111e-015 0.565 -2.3158 0.4082 3.18055e-015 3.18055e-015 3.18055e-015 -0.916 -9.2044 0.2193 -0 -3.18055e-015 -0 -0.0117 -4.1944 -0.0248 0.0129278 0.00232316 -8.69066e-005 -0.0071 -2.3249 -0.0142 -9.54166e-015 -3.18055e-015 -6.36111e-015 -0.6113 -8.7231 -2.0637 -0 -3.18055e-015 -0 0.1927 -3.8059 -0.2383 0.0162952 0.00304226 -0.000871685 0.1091 -2.1688 -0.1362 -7.6711e-006 1.12077e-006 9.58077e-006 0.6151 -8.0947 -3.564 -0 -3.18055e-015 -0 0.4882 -2.341 -0.6462 0.0145827 0.00368678 -0.00326656 0.3574 -1.7166 -0.4742 9.54166e-015 1.27222e-014 6.36111e-015 1.4199 -1.8761 1.4221 -0 -3.18055e-015 -0 1.1472 -3.4929 2.6336 -3.53113e-031 -3.18055e-015 -6.36111e-015 0.8229 -2.3 1.6571 3.18055e-015 3.18055e-015 3.18055e-015 -9.412 3.9771 -0.7758 -44.5228 32.5965 -28.3411 -0.7531 -40.938 7.10543e-015 -71.9056 39.0433 72.316 0 -40.1986 -7.10543e-015 14.8877 12.45 14.967 0 -4.4182 9.239 2.55986e-006 -4.64263e-007 -1.58321e-006 9.4119 3.9773 -0.7758 43.7987 32.6889 27.8859 0.7532 -40.9383 0 72.469 39.3321 -72.7074 0 -40.1986 -3.55271e-015 -15.991 12.0419 -14.2558 1.77636e-015 -4.4182 9.239 6.13435e-006 -1.20382e-006 -3.15261e-007 
